<svg width="44" height="44" viewBox="0 0 44 44" fill="none" xmlns="http://www.w3.org/2000/svg">
<rect width="44" height="44" rx="4" fill="white" fill-opacity="0.4"/>
<path d="M32 18.8622C32 20.4087 31.4062 21.8941 30.3458 22.9929C27.9049 25.523 25.5374 28.1613 23.0053 30.5997C22.4249 31.1505 21.5042 31.1304 20.9488 30.5547L13.6538 22.9929C11.4487 20.7072 11.4487 17.0172 13.6538 14.7316C15.8804 12.4235 19.5079 12.4235 21.7346 14.7316L21.9998 15.0064L22.2648 14.7317C23.3324 13.6245 24.7864 13 26.3053 13C27.8242 13 29.2781 13.6244 30.3458 14.7316C31.4063 15.8304 32 17.3158 32 18.8622Z" stroke="#161616" stroke-width="1.5" stroke-linejoin="round"/>
</svg>
