<svg width="25" height="25" viewBox="0 0 25 25" fill="none" xmlns="http://www.w3.org/2000/svg">
<path d="M4.5001 3.5H20.5002C21.0525 3.5 21.5002 3.94764 21.5002 4.49987L21.5004 6.08569C21.5005 6.35097 21.3951 6.60538 21.2075 6.79295L14.793 13.2071C14.6055 13.3946 14.5001 13.649 14.5001 13.9142L14.5001 20.2192C14.5001 20.8698 13.8887 21.3472 13.2576 21.1894L11.2576 20.6894C10.8124 20.5781 10.5001 20.1781 10.5001 19.7192L10.5001 13.9142C10.5001 13.649 10.3947 13.3946 10.2072 13.2071L3.79299 6.79289C3.60545 6.60536 3.5001 6.351 3.5001 6.08579V4.5C3.5001 3.94772 3.94781 3.5 4.5001 3.5Z" stroke="#161616" stroke-width="1.5" stroke-linecap="round" stroke-linejoin="round"/>
</svg>
