<svg width="171" height="55" viewBox="0 0 171 55" fill="none" xmlns="http://www.w3.org/2000/svg">
<path d="M90.1448 36.2784C90.2112 34.3261 91.4297 33.9031 93.3459 34.3912C92.338 35.2914 91.9281 37.005 90.1448 36.2784Z" fill="#353535"/>
<path d="M96.3367 37.5254C96.3367 37.5254 96.3367 37.6122 96.3367 37.6447C95.1109 39.8139 93.874 41.9578 92.626 44.0764C91.9614 45.161 92.2937 46.43 92.2605 47.6122C92.2051 49.597 92.2605 49.597 90.3664 49.8681C89.6464 49.8681 89.7018 49.3584 89.7018 48.8812V44.7488L85.8692 37.905C85.8138 36.9723 86.5338 37.5797 86.8772 37.417C88.727 37.417 88.9929 38.9246 89.6796 40.0959C90.1005 40.8009 90.167 42.0591 91.0421 42.0591C91.7177 42.0591 91.895 40.8226 92.3159 40.1502C92.7368 39.4777 93.2131 38.4473 93.6451 37.5905C94.5007 37.3449 95.4022 37.293 96.2814 37.4387C96.2814 37.4387 96.3367 37.4929 96.3367 37.5254Z" fill="#353535"/>
<path d="M109.009 30.0744C108.787 29.7165 108.455 29.89 108.122 30.0744C107.092 30.7035 106.483 30.2263 106.195 29.2501C105.774 27.8293 105.42 26.3868 105.087 24.9117C105.486 23.8271 106.428 24.3911 107.114 24.3477C108.721 24.2501 108.887 24.0549 108.3 22.4931C107.004 21.9183 105.641 22.3846 104.312 22.2328C102.794 18.2957 101.764 14.1851 100.568 10.107C99.8037 7.36299 98.5964 5.18296 95.4949 4.57558C95.0297 4.28274 94.5755 4.14175 94.1989 4.70574C92.6629 10.4758 91.1233 16.2531 89.5799 22.0376C88.7049 22.5148 87.7633 22.1786 86.8661 22.2979C85.9689 22.4172 85.3154 22.0376 84.6175 22.5799C84.0194 24.0441 84.2077 24.3694 85.7252 24.3803C86.8329 24.3803 87.8298 24.3803 88.8821 24.3803C88.3547 26.4111 87.4375 28.3251 86.1794 30.0202C85.7901 30.6352 85.2643 31.1564 84.6411 31.545C84.0179 31.9337 83.3132 32.1799 82.5794 32.2653C80.9179 32.3738 80.2422 31.1807 79.4558 30.0961C78.913 29.3477 78.3481 29.6623 77.8275 30.1937C77.6725 30.409 77.5642 30.6531 77.5092 30.911C77.4542 31.1688 77.4536 31.435 77.5076 31.693C77.5615 31.9511 77.6689 32.1956 77.8229 32.4115C77.977 32.6275 78.1746 32.8102 78.4035 32.9486C80.0725 33.722 81.9652 33.8992 83.7536 33.4495C85.542 32.9998 87.1134 31.9516 88.1953 30.4866C89.3931 28.5266 90.4159 26.4691 91.2525 24.3369H98.2308C98.7736 26.0397 99.3385 27.7317 99.837 29.467C99.9644 30.2075 100.349 30.8821 100.927 31.3763C101.504 31.8705 102.238 32.1539 103.005 32.1785C103.331 32.3532 103.697 32.4448 104.068 32.4448C104.44 32.4448 104.806 32.3532 105.132 32.1785C106.367 31.9246 107.553 31.4778 108.643 30.8553C108.887 30.7143 109.219 30.4432 109.009 30.0744ZM91.9725 21.658L94.6531 11.8098C95.7607 15.5734 96.7798 19.0007 97.821 22.5582C95.938 22.5582 94.1657 22.5582 92.4045 22.5582C91.474 22.5799 91.8507 22.1026 91.9725 21.658Z" fill="#353535"/>
<path d="M109.097 37.5255C109.103 37.565 109.103 37.6053 109.097 37.6448C107.856 39.814 106.627 41.9832 105.386 44.0764C104.722 45.161 105.054 46.43 105.021 47.6122C104.965 49.5211 105.021 49.5211 103.116 49.8682C102.407 49.8682 102.462 49.3584 102.462 48.8812V44.7489C101.199 42.4712 99.9402 40.19 98.6848 37.9051C98.7624 36.8964 99.5377 37.6014 99.9476 37.417C100.355 37.3979 100.757 37.5153 101.087 37.7499C101.418 37.9846 101.656 38.3224 101.764 38.7077C102.141 39.6513 102.706 40.519 103.182 41.43C103.326 41.7337 103.415 42.1567 103.813 42.135C104.212 42.1133 104.212 41.7663 104.356 41.4951C105.021 40.1827 105.741 38.8921 106.439 37.5906C107.29 37.3455 108.188 37.2935 109.064 37.4387C109.064 37.4387 109.097 37.4929 109.097 37.5255Z" fill="#353535"/>
<path d="M119.487 47.5578C119.647 47.7067 119.774 47.8859 119.861 48.0845C119.948 48.283 119.993 48.4968 119.993 48.7129C119.993 48.9289 119.948 49.1427 119.861 49.3413C119.774 49.5399 119.647 49.7191 119.487 49.868C117.508 49.7252 115.522 49.6963 113.539 49.7812C112.797 49.7812 112.431 49.6944 112.431 48.8159C112.487 45.3886 112.498 41.9613 112.431 38.534C112.431 37.265 113.306 37.6337 113.927 37.5361C114.768 37.3951 114.813 37.9374 114.813 38.6207C114.813 41.1804 114.879 43.74 114.813 46.2888C114.757 47.5469 115.211 47.8506 116.352 47.7205C117.4 47.7354 118.447 47.6811 119.487 47.5578Z" fill="#353535"/>
<path d="M133.277 42.0807C133.062 41.0168 132.545 40.034 131.785 39.2454C131.024 38.4568 130.052 37.8945 128.98 37.623C127.041 37.1133 125.059 37.4929 123.098 37.4278C122.633 37.4278 122.611 37.8508 122.611 38.1979V49.0438C122.611 49.4668 122.677 49.8681 123.22 49.8356C125.147 49.7488 127.075 50.1176 128.98 49.6403C130.083 49.4221 131.09 48.874 131.862 48.0717C132.634 47.2694 133.132 46.2524 133.289 45.161C133.637 44.1619 133.633 43.0773 133.277 42.0807ZM130.143 46.6577C128.789 47.5667 127.14 47.953 125.513 47.7423C125.047 47.5688 125.147 47.2109 125.136 46.8855C125.136 45.8009 125.136 44.7163 125.136 43.6317V40.3779C125.136 40.0308 125.136 39.7271 125.612 39.6078C126.452 39.407 127.332 39.4375 128.155 39.6959C128.978 39.9543 129.712 40.4306 130.276 41.072C131.162 42.4712 131.084 45.5297 130.143 46.6577Z" fill="#353535"/>
<path d="M134.308 32.222C132.591 31.8967 131.948 31.1374 131.937 29.3045C131.937 25.6819 131.937 22.0485 131.937 18.4585C131.937 17.5258 132.258 16.3544 130.907 16.0073C129.556 15.6603 128.958 16.5496 128.215 17.2872C128.083 17.4569 127.982 17.6477 127.916 17.8511C127.916 21.7882 127.916 25.7362 127.916 29.6732C127.916 30.0203 127.994 30.3782 127.695 30.6602C127.429 31.6147 126.643 31.9617 125.79 32.2546C125.51 32.419 125.191 32.5059 124.865 32.5059C124.539 32.5059 124.219 32.419 123.94 32.2546C122.411 32.081 121.891 31.5062 121.891 29.9769C121.891 26.0941 121.891 22.2112 121.891 18.3284C121.891 17.3414 121.824 16.3219 120.86 15.8989C119.897 15.4759 119.199 16.3869 118.523 16.9835C118.253 17.2555 118.012 17.5535 117.803 17.8728C117.803 21.8533 117.803 25.8338 117.803 29.8034C117.803 30.183 117.903 30.5843 117.571 30.888C117.061 31.4954 116.607 32.1895 115.665 32.2329C115.386 32.3974 115.066 32.4843 114.741 32.4843C114.415 32.4843 114.095 32.3974 113.816 32.2329C112.198 31.9726 111.8 31.4628 111.811 29.9118C111.811 25.4433 111.811 20.9748 111.811 16.5063C111.811 15.1288 111.445 14.8577 110.083 14.977C109.861 14.977 109.507 15.1397 109.429 14.7709C109.424 14.639 109.458 14.5083 109.526 14.3947C109.595 14.2812 109.696 14.1896 109.817 14.131C110.806 13.5475 111.888 13.1296 113.018 12.8945C113.39 12.7203 113.797 12.6299 114.209 12.6299C114.621 12.6299 115.028 12.7203 115.4 12.8945C115.945 13.0769 116.433 13.3913 116.821 13.8085C117.208 14.2257 117.481 14.7322 117.615 15.2807C117.748 15.4216 117.87 15.5843 117.992 15.7253C119.183 14.324 120.789 13.3196 122.588 12.8512C122.913 12.6784 123.277 12.5879 123.646 12.5879C124.016 12.5879 124.379 12.6784 124.704 12.8512C125.452 13.0852 126.124 13.5099 126.649 14.0816C127.175 14.6534 127.536 15.3517 127.695 16.1049C128.971 14.5347 130.718 13.3965 132.69 12.8512C133.015 12.6784 133.379 12.5879 133.748 12.5879C134.118 12.5879 134.481 12.6784 134.806 12.8512C137.121 13.7622 137.719 15.6169 137.719 17.8295C137.719 21.3291 137.719 24.8396 137.719 28.3609C137.719 29.9335 137.719 29.9335 139.248 29.3153C139.512 29.275 139.781 29.275 140.045 29.3153C139.633 30.0341 139.073 30.6609 138.4 31.1557C137.726 31.6506 136.955 32.0027 136.135 32.1895C135.865 32.3629 135.55 32.458 135.226 32.4637C134.903 32.4695 134.584 32.3857 134.308 32.222Z" fill="#353535"/>
<path d="M145.506 37.5255C145.514 37.5443 145.519 37.5646 145.519 37.5851C145.519 37.6056 145.514 37.6259 145.506 37.6448C144.277 39.814 143.058 41.9832 141.795 44.0547C141.4 45.0097 141.274 46.0509 141.43 47.0699C141.43 47.8834 141.43 48.6968 141.43 49.5102C141.113 49.773 140.724 49.937 140.311 49.9815C139.899 50.0259 139.482 49.9487 139.115 49.7597C138.495 49.5645 138.827 48.7727 138.816 48.2413C138.816 47.0808 138.816 45.9202 138.816 44.7489L134.994 37.9051C134.994 37.7966 134.994 37.6773 134.917 37.558C135.362 37.3768 135.844 37.3001 136.325 37.334C136.806 37.3679 137.272 37.5115 137.686 37.7532C138.317 39.0656 138.938 40.3779 139.591 41.6686C139.946 42.3736 140.322 42.2435 140.699 41.6686L142.814 37.6448C143.67 37.3995 144.572 37.3476 145.451 37.4929C145.451 37.4929 145.506 37.4929 145.506 37.5255Z" fill="#353535"/>
<path d="M157.591 47.9053C157.713 48.4259 157.967 49.0767 157.591 49.5973C157.574 49.6665 157.537 49.7292 157.484 49.7775C157.43 49.8258 157.364 49.8574 157.292 49.8685C154.215 49.6895 151.13 49.6895 148.054 49.8685C147.29 49.2611 147.622 48.5344 147.821 47.8186C149.095 46.2134 150.347 44.5648 151.621 42.9921C152.496 41.9075 153.404 40.8229 154.29 39.7383C152.662 39.7383 151.033 39.7383 149.416 39.7383C148.43 39.7383 148.12 39.4672 148.12 38.5019C148.12 37.5366 148.486 37.2546 149.372 37.4173C149.545 37.4281 149.719 37.4281 149.893 37.4173C152.356 37.5962 154.829 37.5962 157.292 37.4173C157.592 37.7223 157.769 38.1236 157.789 38.5466C157.809 38.9696 157.672 39.3854 157.403 39.7166C155.265 42.1461 153.26 44.6841 151.344 47.3088C152.95 47.862 154.667 47.4064 156.24 47.5691C156.694 47.6017 157.436 47.2654 157.591 47.9053Z" fill="#353535"/>
<path d="M147.854 32.2217C147.624 32.3849 147.347 32.4727 147.062 32.4727C146.778 32.4727 146.501 32.3849 146.271 32.2217C145.313 32.1254 144.432 31.669 143.812 30.9487C143.192 30.2283 142.882 29.3004 142.947 28.3605C142.947 24.6404 142.947 20.9202 142.947 17.2109C142.947 15.2478 142.77 15.1285 140.976 15.7575C140.843 15.7575 140.666 15.7575 140.378 15.6708C141.233 14.288 142.61 13.2905 144.21 12.8942C144.58 12.7121 144.987 12.6172 145.401 12.6172C145.815 12.6172 146.222 12.7121 146.592 12.8942C147.149 13.0518 147.65 13.357 148.041 13.7762C148.432 14.1953 148.697 14.7121 148.807 15.2695C149.184 15.6708 149.018 16.1697 149.029 16.6252C149.029 20.5948 149.029 24.5644 149.029 28.5558C149.033 28.6865 149.084 28.8115 149.173 28.9088C149.262 29.0061 149.384 29.0693 149.516 29.0872H150.901C151.811 28.5677 152.626 27.9044 153.315 27.1241C153.315 23.3497 153.315 19.5319 153.315 15.7901C153.016 15.1827 152.595 15.1176 152.041 15.4755C151.731 15.6708 151.41 15.9853 150.934 15.6491C151.368 14.9442 151.949 14.3361 152.637 13.8635C153.326 13.391 154.108 13.0645 154.933 12.9051C155.257 12.7323 155.621 12.6418 155.99 12.6418C156.36 12.6418 156.723 12.7323 157.048 12.9051C157.534 13.038 157.985 13.2741 158.368 13.5964C158.751 13.9188 159.056 14.3196 159.264 14.7706C159.596 15.0851 159.496 15.4972 159.496 15.8552C159.496 20.3598 159.496 24.8573 159.496 29.3475C159.707 30.4321 160.194 29.7705 160.604 29.4994C161.014 29.2282 161.158 29.0004 161.479 29.3367C161.8 29.6729 161.368 29.9332 161.18 30.1501C160.29 31.2149 159.055 31.9497 157.68 32.2325C157.448 32.3942 157.172 32.4811 156.888 32.4811C156.604 32.4811 156.327 32.3942 156.096 32.2325C155.535 32.232 154.991 32.0481 154.549 31.7101C154.108 31.3721 153.794 30.8994 153.659 30.367C153.271 30.1067 153.592 29.5102 153.116 29.2824C151.299 30.443 149.837 31.7987 147.854 32.2217Z" fill="#353535"/>
<path d="M168.335 3.59939C168.881 3.88874 169.322 4.33532 169.599 4.87856C169.877 5.42181 169.977 6.03544 169.886 6.63626C169.886 12.4388 169.886 18.2414 169.886 24.0549C169.886 25.9637 169.886 27.8618 169.886 29.7707C169.886 31.3 169.388 31.8748 167.792 32.2219C167.513 32.3863 167.193 32.4732 166.868 32.4732C166.542 32.4732 166.222 32.3863 165.943 32.2219C164.359 32.0917 164.06 31.1373 164.071 29.7381C164.126 22.5473 164.071 15.3564 164.071 8.15469C164.071 5.48659 164.071 5.48659 161.512 5.31306C162.863 3.5994 166.408 2.72087 168.335 3.59939Z" fill="#353535"/>
<path d="M170.495 37.5254C170.502 37.565 170.502 37.6052 170.495 37.6447C169.255 39.8139 168.036 41.9831 166.785 44.0547C166.391 45.01 166.261 46.0499 166.408 47.0699C166.408 47.8833 166.408 48.6968 166.475 49.5102C166.158 49.7729 165.768 49.937 165.356 49.9815C164.943 50.0259 164.527 49.9487 164.159 49.7597C163.528 49.5644 163.871 48.7727 163.849 48.2412C163.849 47.0807 163.849 45.9202 163.849 44.7488L160.061 37.905L159.995 37.558C160.925 37.3736 161.878 37.0699 162.753 37.764C163.395 39.0656 164.004 40.3779 164.669 41.6686C165.023 42.3736 165.4 42.2434 165.777 41.6686L167.903 37.6447C168.723 37.3945 169.589 37.3242 170.44 37.4387C170.44 37.4387 170.495 37.4929 170.495 37.5254Z" fill="#353535"/>
<path d="M140.067 29.3475C139.655 30.0663 139.095 30.6931 138.422 31.1879C137.748 31.6828 136.977 32.0349 136.157 32.2217C135.55 32.3683 134.915 32.3683 134.307 32.2217C132.591 31.8963 131.948 31.1371 131.937 29.3041C131.937 25.6816 131.937 22.0482 131.937 18.4582C131.937 17.5254 132.258 16.3541 130.907 16.007C129.556 15.6599 128.957 16.5493 128.215 17.2868C128.083 17.4566 127.982 17.6474 127.916 17.8508C127.65 19.9115 127.861 21.9831 127.794 24.0547C127.728 26.1263 127.905 28.4581 127.706 30.6599C127.44 31.6143 126.653 31.9614 125.801 32.2542C125.192 32.3954 124.559 32.3954 123.951 32.2542C122.422 32.0807 121.901 31.5059 121.901 29.9766C121.901 26.0937 121.901 22.2109 121.901 18.328C121.901 17.341 121.835 16.3215 120.871 15.8985C119.908 15.4755 119.21 16.3866 118.534 16.9831C118.264 17.2552 118.023 17.5531 117.814 17.8725C117.652 19.2403 117.611 20.6193 117.692 21.994C117.615 24.9657 117.803 27.9484 117.593 30.9202C117.083 31.5275 116.629 32.2217 115.687 32.2651C115.078 32.3952 114.447 32.3952 113.838 32.2651C112.22 32.0048 111.822 31.495 111.833 29.944C111.833 25.4755 111.833 21.007 111.833 16.5384C111.833 15.161 111.467 14.8899 110.105 15.0092C109.883 15.0092 109.529 15.1719 109.451 14.8031C109.446 14.6712 109.48 14.5405 109.548 14.4269C109.617 14.3134 109.718 14.2218 109.839 14.1632C110.828 13.5797 111.91 13.1618 113.04 12.9267C113.827 12.7804 114.635 12.7804 115.422 12.9267C115.967 13.1091 116.455 13.4235 116.843 13.8407C117.23 14.2579 117.503 14.7644 117.637 15.3129C117.726 15.4864 117.637 15.8552 118.014 15.7575C119.205 14.3562 120.811 13.3518 122.61 12.8834C123.308 12.7371 124.029 12.7371 124.726 12.8834C125.474 13.1174 126.146 13.5421 126.671 14.1138C127.197 14.6856 127.558 15.3839 127.717 16.1371C128.993 14.5669 130.74 13.4287 132.712 12.8834C133.41 12.7368 134.131 12.7368 134.828 12.8834C137.143 13.7944 137.741 15.6491 137.741 17.8617C137.741 21.3613 137.741 24.8718 137.741 28.3931C137.741 29.9657 137.741 29.9657 139.27 29.3475C139.534 29.3072 139.803 29.3072 140.067 29.3475Z" fill="#353535"/>
<path d="M109.008 30.0746C108.787 29.7167 108.454 29.8902 108.122 30.0746C107.092 30.7036 106.483 30.2264 106.195 29.2503C105.774 27.8295 105.419 26.387 105.087 24.9119C104.899 24.4998 104.987 24.2286 105.475 24.1961C105.962 24.1635 106.45 24.1961 106.937 24.1961C108.1 24.1961 108.432 24.1961 108.432 23.5887C108.442 23.4551 108.442 23.321 108.432 23.1874C108.432 23.0247 108.377 22.8295 108.344 22.6126C107.037 22.2546 105.663 22.7319 104.356 22.3523C102.794 18.2959 101.764 14.1853 100.568 10.1072C99.8036 7.36315 98.5962 5.18312 95.4947 4.57574C95.0516 4.51067 94.5864 4.2829 94.1987 4.70589C92.6628 10.4759 91.1231 16.2532 89.5797 22.0377C89.3028 22.6126 88.7601 22.3848 88.317 22.4173C87.0743 22.3485 85.8277 22.3994 84.5952 22.5692C84.2961 24.2069 84.3072 24.2069 85.9466 24.2611C86.9037 24.1651 87.87 24.2053 88.8154 24.3805C88.288 26.4113 87.3708 28.3253 86.1127 30.0203C85.7235 30.6353 85.1977 31.1565 84.5744 31.5452C83.9512 31.9339 83.2465 32.1801 82.5128 32.2655C80.8513 32.3739 80.1756 31.1809 79.3891 30.0963C78.8464 29.3479 78.2815 29.6624 77.7609 30.1939C77.6059 30.4092 77.4976 30.6533 77.4426 30.9111C77.3875 31.169 77.387 31.4351 77.4409 31.6932C77.4949 31.9512 77.6022 32.1958 77.7563 32.4117C77.9104 32.6276 78.1079 32.8104 78.3369 32.9487C80.0058 33.7221 81.8986 33.8993 83.687 33.4497C85.4754 33 87.0467 31.9518 88.1287 30.4867C89.3264 28.5267 90.3493 26.4692 91.1859 24.3371C93.5075 24.1364 95.8426 24.1364 98.1642 24.3371C98.707 26.0399 99.2719 27.7318 99.7703 29.4672C99.8977 30.2077 100.283 30.8822 100.86 31.3764C101.438 31.8706 102.172 32.1541 102.938 32.1787C103.639 32.3306 104.365 32.3306 105.065 32.1787C106.3 31.9248 107.486 31.478 108.576 30.8555C108.886 30.7145 109.219 30.4433 109.008 30.0746ZM91.9723 21.6581L94.6529 11.81C95.7605 15.5735 96.7796 19.0009 97.8208 22.5583C95.9378 22.5583 94.1655 22.5583 92.4043 22.5583C91.4739 22.58 91.8505 22.1028 91.9723 21.6581Z" fill="#353535"/>
<path d="M160.925 30.1502C160.035 31.215 158.8 31.9498 157.425 32.2326C156.905 32.3625 156.36 32.3625 155.841 32.2326C155.28 32.232 154.736 32.0481 154.295 31.7102C153.853 31.3722 153.54 30.8995 153.404 30.3671C153.016 30.1068 153.803 29.2825 152.861 29.2825C151.299 30.3671 149.837 31.7554 147.854 32.2001C147.336 32.3358 146.789 32.3358 146.271 32.2001C145.313 32.1038 144.432 31.6474 143.812 30.927C143.192 30.2067 142.882 29.2787 142.947 28.3389C142.947 24.6187 142.947 20.8986 142.947 17.1893C142.947 15.2261 142.77 15.1068 140.976 15.7359C140.843 15.7359 140.666 15.7359 140.378 15.6491C141.233 14.2663 142.61 13.2689 144.21 12.8726C144.995 12.7098 145.807 12.7098 146.592 12.8726C147.149 13.0302 147.65 13.3354 148.041 13.7545C148.432 14.1737 148.697 14.6905 148.807 15.2478C149.006 19.1958 148.807 23.1545 148.896 27.1133C148.776 27.5843 148.783 28.0778 148.918 28.545C148.922 28.6757 148.973 28.8008 149.062 28.898C149.151 28.9953 149.273 29.0585 149.405 29.0764C149.622 29.1753 149.858 29.2266 150.098 29.2266C150.337 29.2266 150.573 29.1753 150.79 29.0764C151.7 28.5569 152.516 27.8936 153.205 27.1133C153.398 23.3377 153.398 19.5549 153.205 15.7793C152.905 15.1719 152.485 15.1068 151.931 15.4647C151.621 15.66 151.299 15.9745 150.823 15.6383C151.258 14.9334 151.838 14.3253 152.526 13.8527C153.215 13.3802 153.997 13.0537 154.822 12.8943C155.52 12.7587 156.239 12.7587 156.937 12.8943C157.424 13.0272 157.874 13.2633 158.257 13.5856C158.64 13.908 158.946 14.3088 159.153 14.7598C159.363 18.8487 159.153 22.9485 159.252 27.0482C159.171 27.8162 159.212 28.592 159.374 29.3476C159.585 30.4322 160.072 29.7706 160.482 29.4994C160.892 29.2283 161.036 29.0005 161.357 29.3367C161.678 29.6729 161.113 29.9332 160.925 30.1502Z" fill="#353535"/>
<path d="M169.886 6.64739C169.886 12.45 169.886 18.2526 169.886 24.066C169.886 25.9749 169.886 27.8729 169.886 29.7818C169.886 31.3111 169.388 31.8859 167.792 32.233C167.184 32.3738 166.551 32.3738 165.943 32.233C164.359 32.1028 164.06 31.1484 164.071 29.7493C164.126 22.5584 164.071 15.3675 164.071 8.16582C164.071 5.49771 164.071 5.49771 161.512 5.32418C162.863 3.59967 166.408 2.72115 168.335 3.59967C168.883 3.88968 169.325 4.33799 169.603 4.88343C169.88 5.42887 169.979 6.04487 169.886 6.64739Z" fill="#353535"/>
<path d="M133.277 42.0807C133.062 41.0168 132.545 40.034 131.785 39.2454C131.024 38.4568 130.052 37.8944 128.98 37.623C127.506 37.514 126.026 37.485 124.549 37.5363H123.441C122.932 37.5363 122.799 37.7857 122.799 38.2521C122.799 41.8529 122.799 45.4538 122.799 49.098C122.799 49.6295 123.02 49.803 123.452 49.8139H123.74H124.77C126.196 49.8682 127.623 49.8465 129.046 49.7488C130.149 49.5305 131.156 48.9825 131.928 48.1802C132.7 47.3779 133.198 46.3609 133.355 45.2694C133.475 44.2079 133.449 43.1354 133.277 42.0807ZM130.143 46.6577C128.789 47.5666 127.14 47.953 125.513 47.7423C125.047 47.5688 125.147 47.2108 125.136 46.8855C125.136 45.8009 125.136 44.7163 125.136 43.6317V40.3779C125.136 40.0308 125.136 39.7271 125.612 39.6078C126.452 39.407 127.332 39.4375 128.155 39.6959C128.978 39.9543 129.712 40.4306 130.276 41.072C131.162 42.4712 131.084 45.5297 130.143 46.6577Z" fill="#353535"/>
<path d="M157.546 49.1522C157.558 49.3111 157.558 49.4705 157.546 49.6294C157.53 49.6986 157.492 49.7613 157.439 49.8096C157.386 49.8579 157.319 49.8895 157.247 49.9006C154.171 49.7216 151.086 49.7216 148.009 49.9006C147.389 49.2715 147.821 48.534 147.777 47.8507C149.051 46.2455 150.302 44.5969 151.576 43.0242C152.451 41.9396 153.359 40.855 154.246 39.7704C152.682 39.6132 151.108 39.5697 149.538 39.6403C148.929 39.6403 148.231 39.8572 148.209 38.7618C148.174 38.5728 148.18 38.3789 148.226 38.1922C148.271 38.0055 148.356 37.8301 148.475 37.6772C148.527 37.6407 148.583 37.6081 148.641 37.5796H148.763H148.862C149.045 37.5468 149.233 37.5468 149.416 37.5796C149.548 37.5794 149.678 37.5458 149.793 37.4819C152.256 37.6609 154.729 37.6609 157.192 37.4819C157.403 37.8264 157.524 38.2167 157.543 38.6179C157.562 39.0192 157.48 39.4189 157.303 39.7813C155.165 42.2108 153.16 44.7487 151.244 47.3734C151.244 47.9483 151.72 47.7531 152.019 47.7531C153.382 47.7531 154.744 47.7531 156.106 47.7531C157.469 47.7531 157.613 47.688 157.546 49.1522Z" fill="#353535"/>
<path d="M105.353 44.0764C104.688 45.161 105.021 46.43 104.987 47.6122C104.932 49.5211 104.987 49.5211 103.082 49.8682C102.429 49.7055 102.595 49.1632 102.562 48.7836C102.634 47.4555 102.589 46.1238 102.429 44.8031C101.166 42.5255 99.907 40.2442 98.6516 37.9593C98.8399 37.2326 99.5599 37.7966 99.9144 37.4712C100.32 37.4414 100.724 37.5475 101.06 37.7722C101.397 37.9969 101.645 38.3267 101.764 38.7077C102.141 39.6513 102.706 40.519 103.182 41.43C103.326 41.7337 103.415 42.1567 103.813 42.135C104.212 42.1133 104.212 41.7662 104.356 41.4951C105.021 40.1827 105.741 38.8921 106.439 37.5905C106.943 37.5385 107.449 37.5131 107.956 37.5146H108.244H108.521C108.711 37.5366 108.9 37.5692 109.086 37.6122C107.823 39.7923 106.594 41.9398 105.353 44.0764Z" fill="#353535"/>
<path d="M92.5927 44.0764C91.9281 45.161 92.2604 46.43 92.2272 47.6122C92.1718 49.597 92.2272 49.597 90.3331 49.8681C89.6685 49.7055 89.8346 49.174 89.8125 48.7836C89.8752 47.4551 89.827 46.1239 89.6685 44.8031L85.8691 37.9051C85.8707 37.8464 85.8855 37.7888 85.9123 37.7364C85.9391 37.6839 85.9773 37.6378 86.0242 37.6014C86.2125 37.4604 86.5227 37.6014 86.7442 37.4821C86.7925 37.4692 86.8377 37.4471 86.8771 37.417C88.7269 37.417 88.9928 38.9246 89.6795 40.0959C90.1005 40.8009 90.1669 42.0591 91.042 42.0591C91.7177 42.0591 91.8949 40.8226 92.3158 40.1502C92.7367 39.4777 93.213 38.4474 93.645 37.5905C94.1213 37.5905 94.5976 37.5146 95.0739 37.5146C95.488 37.4988 95.9023 37.5426 96.3034 37.6448C95.0776 39.7923 93.8407 41.9361 92.5927 44.0764Z" fill="#353535"/>
<path d="M141.762 44.0547C141.367 45.0096 141.241 46.0509 141.397 47.0699C141.397 47.8833 141.397 48.6968 141.397 49.5102C141.078 49.7409 140.683 49.8455 140.289 49.803C139.99 49.803 139.691 49.738 139.392 49.7163H139.237C138.76 49.7163 138.893 49.2065 138.871 48.8811C138.934 47.5057 138.886 46.1276 138.727 44.7597L134.994 37.905C135.17 37.7542 135.373 37.6365 135.593 37.558C135.689 37.5225 135.789 37.4971 135.892 37.482C136.503 37.4295 137.119 37.5225 137.686 37.7532C138.317 39.0655 138.938 40.3779 139.591 41.6686C139.946 42.3736 140.322 42.2434 140.699 41.6686L142.815 37.6447C143.291 37.6447 143.767 37.5688 144.243 37.5688C144.658 37.553 145.072 37.5968 145.473 37.699C144.243 39.7922 143.025 41.9289 141.762 44.0547Z" fill="#353535"/>
<path d="M166.751 44.0549C166.358 45.0102 166.228 46.0501 166.375 47.0701C166.375 47.8836 166.375 48.697 166.441 49.5104C166.123 49.7411 165.727 49.8457 165.333 49.8033C165.034 49.8033 164.735 49.7382 164.436 49.7165H164.27C163.805 49.7165 163.927 49.2068 163.905 48.8814C163.971 47.5063 163.927 46.1282 163.772 44.7599L159.983 37.9161C160.077 37.8341 160.181 37.7648 160.294 37.71C160.39 37.6498 160.494 37.6024 160.604 37.5691C160.708 37.5336 160.816 37.5081 160.925 37.4931C161.028 37.4828 161.132 37.4828 161.235 37.4931C161.729 37.515 162.216 37.6176 162.675 37.7968C163.317 39.0983 163.927 40.4107 164.591 41.7014C164.946 42.4063 165.322 42.2762 165.699 41.7014L167.826 37.6775C168.302 37.6775 168.778 37.6016 169.255 37.6016C169.669 37.5858 170.083 37.6296 170.484 37.7317C169.221 39.7925 168.003 41.9291 166.751 44.0549Z" fill="#353535"/>
<path d="M119.487 49.868C117.508 49.7252 115.522 49.6963 113.539 49.7812C112.797 49.7812 112.431 49.6944 112.431 48.8159C112.487 45.3886 112.498 41.9613 112.431 38.534C112.431 37.265 113.306 37.6337 113.927 37.5361C114.768 37.3951 114.813 37.9374 114.813 38.6207C114.813 41.1804 114.879 43.74 114.813 46.2888C114.757 47.5469 115.211 47.8506 116.352 47.7205C117.4 47.7354 118.447 47.6811 119.487 47.5578C119.709 47.9037 119.827 48.3042 119.827 48.7129C119.827 49.1216 119.709 49.522 119.487 49.868Z" fill="#353535"/>
<path d="M124.704 49.7381L128.98 49.6731C127.075 50.1503 125.147 49.7815 123.22 49.8683C122.677 49.8683 122.611 49.4995 122.611 49.0765V38.2306C122.611 37.8835 122.611 37.4497 123.098 37.4605C125.059 37.5256 127.041 37.146 128.98 37.6557C127.484 37.6557 126 37.6557 124.549 37.569H124.438H123.707H123.419C123.02 37.569 122.854 37.8076 122.854 38.3499C122.854 41.9074 122.854 45.4648 122.854 49.0223C122.854 49.5537 123.02 49.749 123.419 49.7924H123.707L124.704 49.7381Z" fill="#353535"/>
<path d="M93.3459 34.3912C92.338 35.2914 91.9281 37.005 90.1448 36.2784C90.2112 34.3261 91.4297 33.9031 93.3459 34.3912Z" fill="#353535"/>
<path d="M159.286 15.8552C159.286 20.3599 159.286 24.8573 159.286 29.3476C158.942 28.8812 159.098 28.3497 159.098 27.84C159.098 23.5016 159.098 19.1632 159.098 14.7598C159.364 15.0743 159.286 15.5298 159.286 15.8552Z" fill="#353535"/>
<path d="M148.919 16.6143C148.919 20.5839 148.919 24.5536 148.919 28.5449C148.805 28.4126 148.724 28.2574 148.679 28.0904C148.635 27.9234 148.63 27.7489 148.663 27.5796V15.2803C149.074 15.6816 148.908 16.1805 148.919 16.6143Z" fill="#353535"/>
<path d="M117.593 30.888C117.593 26.9401 117.593 23.003 117.593 19.0659C117.593 18.6538 117.393 18.1874 117.804 17.8403C117.804 21.8208 117.804 25.8013 117.804 29.7709C117.815 30.1613 117.926 30.5626 117.593 30.888Z" fill="#353535"/>
<path d="M127.695 30.6274C127.695 26.5783 127.695 22.5363 127.695 18.5017C127.695 18.2522 127.628 17.9702 127.928 17.8184C127.928 21.7554 127.928 25.7034 127.928 29.6404C127.917 29.9875 127.995 30.3454 127.695 30.6274Z" fill="#353535"/>
<path d="M153.338 20.0093C153.455 22.374 153.41 24.7437 153.205 27.1026C153.205 23.3282 153.205 19.5104 153.205 15.7686C153.443 17.17 153.488 18.5963 153.338 20.0093Z" fill="#353535"/>
<path d="M154.323 39.6299C154.308 39.6696 154.285 39.7063 154.257 39.7383C152.628 39.7383 151 39.7383 149.383 39.7383C148.397 39.7383 148.087 39.4672 148.087 38.5019C148.087 37.5366 148.452 37.2546 149.339 37.4173C149.512 37.4281 149.686 37.4281 149.859 37.4173C149.638 37.6451 149.261 37.5149 148.929 37.5149H148.829H148.707C148.643 37.5306 148.585 37.5646 148.541 37.6125C148.476 37.7117 148.431 37.8221 148.408 37.9379C148.164 39.1527 148.408 39.4455 149.671 39.4563H154.323C154.323 39.4563 154.323 39.619 154.323 39.6299Z" fill="#353535"/>
<path d="M157.558 49.5969C157.472 49.7006 157.371 49.7919 157.259 49.8681C157.412 49.5575 157.484 49.2147 157.469 48.8702C157.591 48.0026 157.314 47.6663 156.361 47.7206C154.833 47.8073 153.293 47.7206 151.753 47.7206C151.565 47.7206 150.834 47.9917 151.321 47.2759C152.928 47.829 154.644 47.3735 156.217 47.5362C156.705 47.5362 157.447 47.2542 157.602 47.8941C157.757 48.534 157.968 49.0763 157.558 49.5969Z" fill="#353535"/>
<path d="M166.441 49.5104C166.125 49.7731 165.735 49.9372 165.323 49.9816C164.91 50.0261 164.493 49.9489 164.126 49.7598C163.495 49.5646 163.838 48.7729 163.816 48.2414C163.816 47.0809 163.816 45.9204 163.816 44.749C164.37 45.8336 164.015 46.9182 164.049 48.0028C164.082 49.0874 164.159 49.5104 164.481 49.7273C164.616 49.8026 164.765 49.8492 164.92 49.8641C165.074 49.8791 165.23 49.862 165.378 49.8141C165.738 49.7349 166.094 49.6335 166.441 49.5104Z" fill="#353535"/>
<path d="M141.452 49.5104C141.135 49.7731 140.746 49.9372 140.333 49.9816C139.921 50.0261 139.504 49.9489 139.137 49.7598C138.517 49.5646 138.849 48.7729 138.838 48.2414C138.838 47.0809 138.838 45.9204 138.838 44.749C139.392 45.8336 139.048 46.9182 139.082 48.0028C139.115 49.0874 139.192 49.4995 139.502 49.7273C139.637 49.8026 139.787 49.8492 139.942 49.8641C140.096 49.8791 140.252 49.862 140.4 49.8141C140.757 49.7344 141.108 49.633 141.452 49.5104Z" fill="#353535"/>
<path d="M98.1644 24.3802H91.186C93.4978 24.0223 95.8526 24.0223 98.1644 24.3802Z" fill="#353535"/>
<path d="M88.8155 24.38C87.7078 24.38 86.7109 24.38 85.6586 24.38C84.1965 24.38 84.0082 24.0438 84.551 22.5796C84.3184 23.7401 84.551 24.3475 86.0352 24.1956C86.9561 23.9427 87.9379 24.0078 88.8155 24.38Z" fill="#353535"/>
<path d="M107.07 24.4128C106.383 24.4128 105.442 23.8597 105.043 24.9768C104.766 24.5755 104.533 24.1742 105.331 24.1525C105.81 24.1088 106.292 24.1088 106.771 24.1525C107.879 24.3586 108.377 23.9899 108.355 23.1764C108.35 22.9819 108.32 22.7888 108.266 22.6016C108.842 24.12 108.676 24.3152 107.07 24.4128Z" fill="#353535"/>
<path d="M90.3331 49.8683C89.6131 49.8683 89.6685 49.3586 89.6685 48.8813V44.749C90.2445 46.018 89.7792 47.352 89.9232 48.6427C89.9565 49.0766 89.7128 49.6189 90.3331 49.8683Z" fill="#353535"/>
<path d="M103.082 49.8683C102.373 49.8683 102.429 49.3586 102.429 48.8813V44.749C102.994 46.018 102.528 47.352 102.684 48.6427C102.717 49.0766 102.473 49.6189 103.082 49.8683Z" fill="#353535"/>
<path d="M89.5797 22.0376C89.5797 22.7534 89.0038 22.5365 88.6271 22.5365C87.2758 22.5365 85.9466 22.5365 84.5952 22.5365C85.293 21.9617 86.1017 22.363 86.8659 22.2654C87.6302 22.1677 88.7268 22.5257 89.5797 22.0376Z" fill="#353535"/>
<path d="M108.255 22.5579C106.926 22.3844 105.564 22.905 104.268 22.2976C105.597 22.4494 106.959 22.0373 108.255 22.5579Z" fill="#353535"/>
<path d="M137.73 37.7532C137.158 37.5425 136.547 37.4502 135.936 37.4821C135.834 37.4971 135.734 37.5226 135.637 37.558C135.417 37.6366 135.215 37.7542 135.039 37.9051C135.039 37.7966 135.039 37.6773 134.961 37.558C135.406 37.3768 135.889 37.3001 136.369 37.334C136.85 37.3679 137.316 37.5115 137.73 37.7532Z" fill="#353535"/>
<path d="M133.289 45.1933C133.289 44.163 133.289 43.1218 133.289 42.0806C133.649 43.0883 133.649 44.1856 133.289 45.1933Z" fill="#353535"/>
<path d="M162.686 37.7639C162.222 37.6021 161.738 37.5 161.246 37.4603C161.143 37.4499 161.039 37.4499 160.936 37.4603C160.826 37.4713 160.718 37.4968 160.615 37.5362C160.504 37.5649 160.399 37.6126 160.305 37.6772C160.192 37.7319 160.088 37.8012 159.995 37.8832L159.928 37.5362C160.881 37.3735 161.833 37.0698 162.686 37.7639Z" fill="#353535"/>
<path d="M145.506 37.5257C145.514 37.5445 145.519 37.5648 145.519 37.5853C145.519 37.6058 145.514 37.6261 145.506 37.645C145.105 37.5429 144.691 37.499 144.277 37.5148C143.8 37.5148 143.324 37.5148 142.848 37.5907C143.703 37.3455 144.605 37.2936 145.484 37.4389C145.484 37.4389 145.506 37.4931 145.506 37.5257Z" fill="#353535"/>
<path d="M170.495 37.5252C170.502 37.5647 170.502 37.605 170.495 37.6445C170.094 37.5424 169.68 37.4985 169.266 37.5143C168.79 37.5143 168.313 37.5143 167.837 37.5903C168.682 37.3485 169.572 37.2966 170.44 37.4384C170.44 37.4384 170.495 37.4927 170.495 37.5252Z" fill="#353535"/>
<path d="M109.097 37.5257C109.103 37.5653 109.103 37.6055 109.097 37.645C108.912 37.5966 108.723 37.564 108.532 37.5474H108.255H107.967C107.458 37.5474 106.959 37.5474 106.45 37.6233C107.302 37.3783 108.199 37.3263 109.075 37.4715C109.075 37.4715 109.097 37.4932 109.097 37.5257Z" fill="#353535"/>
<path d="M96.3365 37.5254C96.3365 37.5254 96.3365 37.6122 96.3365 37.6447C95.939 37.5437 95.5286 37.4998 95.1181 37.5146C94.6418 37.5146 94.1655 37.5146 93.6892 37.5905C94.5448 37.3449 95.4463 37.293 96.3255 37.4387C96.3255 37.4387 96.3365 37.4929 96.3365 37.5254Z" fill="#353535"/>
<path d="M115.422 12.894H113.04C113.412 12.7198 113.819 12.6294 114.231 12.6294C114.643 12.6294 115.05 12.7198 115.422 12.894Z" fill="#353535"/>
<path d="M146.525 12.9054H144.144C144.513 12.7233 144.921 12.6284 145.335 12.6284C145.748 12.6284 146.156 12.7233 146.525 12.9054Z" fill="#353535"/>
<path d="M157.369 39.7163C157.555 38.955 157.517 38.1578 157.259 37.417C157.559 37.7219 157.735 38.1233 157.756 38.5463C157.776 38.9693 157.639 39.3851 157.369 39.7163Z" fill="#353535"/>
<path d="M119.487 49.8683C119.662 49.5074 119.753 49.1128 119.753 48.7132C119.753 48.3136 119.662 47.919 119.487 47.5581C119.647 47.707 119.774 47.8862 119.861 48.0848C119.948 48.2833 119.993 48.4971 119.993 48.7132C119.993 48.9293 119.948 49.1431 119.861 49.3416C119.774 49.5402 119.647 49.7194 119.487 49.8683Z" fill="#353535"/>
<path d="M148.021 49.8683C147.256 49.2609 147.589 48.5342 147.788 47.8184C147.877 48.5017 147.589 49.2283 148.021 49.8683Z" fill="#353535"/>
<path d="M156.893 12.8946H154.777C155.102 12.7219 155.466 12.6313 155.835 12.6313C156.205 12.6313 156.568 12.7219 156.893 12.8946Z" fill="#353535"/>
<path d="M134.828 12.8946H132.713C133.037 12.7219 133.401 12.6313 133.77 12.6313C134.14 12.6313 134.504 12.7219 134.828 12.8946Z" fill="#353535"/>
<path d="M124.726 12.8834H122.611C122.935 12.7106 123.299 12.6201 123.668 12.6201C124.038 12.6201 124.402 12.7106 124.726 12.8834Z" fill="#353535"/>
<path d="M105.087 32.2217C104.761 32.3964 104.395 32.4879 104.024 32.4879C103.652 32.4879 103.286 32.3964 102.96 32.2217H105.087Z" fill="#353535"/>
<path d="M167.781 32.2329C167.502 32.3974 167.182 32.4843 166.857 32.4843C166.531 32.4843 166.211 32.3974 165.932 32.2329H167.781Z" fill="#353535"/>
<path d="M136.157 32.2217C135.881 32.3946 135.56 32.4865 135.233 32.4865C134.905 32.4865 134.584 32.3946 134.308 32.2217H136.157Z" fill="#353535"/>
<path d="M153.404 30.3672C153.016 30.1069 153.337 29.5104 152.861 29.2826C152.994 29.0657 153.182 28.7837 153.326 29.2176C153.399 29.5964 153.425 29.9824 153.404 30.3672Z" fill="#353535"/>
<path d="M125.79 32C125.51 32.1645 125.191 32.2514 124.865 32.2514C124.539 32.2514 124.219 32.1645 123.94 32H125.79Z" fill="#353535"/>
<path d="M115.688 32.2329C115.408 32.3974 115.089 32.4843 114.763 32.4843C114.437 32.4843 114.117 32.3974 113.838 32.2329H115.688Z" fill="#353535"/>
<path d="M147.854 32.2217C147.624 32.3849 147.347 32.4727 147.062 32.4727C146.778 32.4727 146.501 32.3849 146.271 32.2217H147.854Z" fill="#353535"/>
<path d="M157.425 32.2329C157.194 32.3946 156.917 32.4815 156.633 32.4815C156.349 32.4815 156.072 32.3946 155.841 32.2329H157.425Z" fill="#353535"/>
<path d="M99.8921 37.417C99.5377 37.7424 98.7845 37.1784 98.6294 37.9051C98.7069 36.8964 99.4823 37.6014 99.8921 37.417Z" fill="#353535"/>
<path d="M118.014 15.7792C118.014 15.9853 117.836 16.1263 117.715 16.0612C117.593 15.9961 117.593 15.5406 117.593 15.2803C117.77 15.5297 117.892 15.6382 118.014 15.7792Z" fill="#353535"/>
<path d="M86.8772 37.417C86.8378 37.4471 86.7926 37.4692 86.7443 37.482C86.5228 37.558 86.2126 37.482 86.0243 37.6013C85.9774 37.6378 85.9391 37.6839 85.9124 37.7363C85.8856 37.7888 85.8708 37.8464 85.8692 37.905C85.8138 36.9723 86.5338 37.5797 86.8772 37.417Z" fill="#353535"/>
<path d="M150.79 29.0654C150.601 29.2362 150.354 29.331 150.098 29.331C149.841 29.331 149.594 29.2362 149.405 29.0654H150.79Z" fill="#353535"/>
<path d="M30.2921 32.426C30.4393 32.5267 30.5755 32.6419 30.6986 32.7698C29.7747 33.3669 28.7398 33.5297 27.8713 34.0454C26.5617 34.9167 25.0149 35.3825 23.4316 35.3825C21.8484 35.3825 20.3016 34.9167 18.992 34.0454C18.2401 33.6696 17.462 33.3461 16.6636 33.0774C16.2109 32.8874 16.1739 32.625 16.6636 32.435C18.7702 31.5755 20.8769 30.7251 22.9928 29.9018C23.3843 29.7714 23.8126 29.7974 24.1847 29.9742L30.2921 32.426Z" fill="#04C0FF"/>
<path d="M31.5951 31.4673C29.1188 29.0427 26.5964 26.6543 24.2034 24.1753C21.8455 21.6906 18.6488 20.1255 15.2039 19.7694C14.8916 19.6264 14.5509 19.5522 14.2061 19.5522C13.8612 19.5522 13.5206 19.6264 13.2082 19.7694C10.1102 19.9539 7.17301 21.183 4.89575 23.2479C2.61849 25.3128 1.14165 28.086 0.716181 31.0964C0.365075 31.603 0.596066 32.173 0.549868 32.7158C0.549868 33.2496 0.365075 33.8196 0.706942 34.3262C0.97078 36.9582 2.14043 39.4242 4.02397 41.3197C6.40606 43.8166 9.6941 45.2981 13.1805 45.4452C13.4924 45.5839 13.8311 45.6556 14.1737 45.6556C14.5164 45.6556 14.855 45.5839 15.167 45.4452C18.6097 45.1484 21.8262 43.6411 24.2218 41.2021C26.6519 38.7774 29.1281 36.389 31.6136 33.9643C32.5652 33.0325 32.5745 32.4354 31.5951 31.4673ZM31.013 33.7201C28.5183 36.0814 26.1067 38.5331 23.6213 40.9578C21.7179 42.7672 19.6575 44.3052 16.71 43.9343C15.0931 43.7827 13.5265 43.302 12.1104 42.523C10.6943 41.744 9.46005 40.6839 8.48672 39.4107C6.97333 37.4676 6.1814 35.0774 6.24149 32.6344C6.23635 31.0937 6.55329 29.5683 7.17281 28.152C7.79233 26.7358 8.70132 25.4586 9.84383 24.3993C10.9863 23.3399 12.3382 22.5207 13.8162 21.9921C15.2941 21.4634 16.867 21.2366 18.4378 21.3255C19.1363 21.4033 19.8068 21.6387 20.3966 22.0131C21.4141 22.5892 22.3466 23.2983 23.1685 24.1211C25.7833 26.6723 28.3704 29.2598 31.0222 31.7749C31.7891 32.5078 31.7799 32.9873 31.013 33.7201Z" fill="#04C0FF"/>
<path d="M6.93454 6.99446C6.87715 6.95329 6.82941 6.90058 6.79454 6.83986C6.75966 6.77914 6.73845 6.71183 6.73232 6.64242C6.7262 6.57302 6.7353 6.50314 6.75902 6.43746C6.78274 6.37179 6.82053 6.31184 6.86986 6.26164C6.91828 6.21068 6.97691 6.17003 7.04209 6.14224C7.10727 6.11444 7.1776 6.1001 7.24869 6.1001C7.31978 6.1001 7.3901 6.11444 7.45528 6.14224C7.52046 6.17003 7.57909 6.21068 7.62751 6.26164C10.0853 7.29301 12.5338 8.35153 15.0192 9.32862C15.533 9.50487 16.0007 9.79009 16.3888 10.1639C16.777 10.5377 17.076 10.9908 17.2645 11.4909C18.1884 13.8703 19.2602 16.2135 20.2766 18.5658C20.3967 18.8643 20.6739 19.2081 20.3875 19.4705C20.2325 19.5613 20.0553 19.6094 19.8747 19.6094C19.694 19.6094 19.5168 19.5613 19.3619 19.4705C16.9041 18.4753 14.4371 17.5253 11.9701 16.5211C11.0204 16.0801 10.2867 15.2901 9.92818 14.3226C8.8841 11.889 7.93242 9.42814 6.93454 6.99446Z" fill="#04C0FF"/>
<path d="M34.4962 37.1307C35.4202 39.4105 36.3442 41.6542 37.3513 43.9341C37.6008 44.4679 37.7808 45.0302 37.8872 45.6078C37.8361 46.3732 37.6287 47.1208 37.2774 47.8063C36.3534 49.9776 35.4294 52.1308 34.5055 54.2931C34.3669 54.6188 34.2837 55.0259 33.8033 54.9988C33.3228 54.9716 33.3875 54.5645 33.2951 54.3383C32.2325 51.6242 30.939 49.0277 29.9688 46.2864C29.8076 45.7973 29.8439 45.2663 30.0705 44.8026C31.1053 42.1971 32.2418 39.6458 33.3598 37.0764C33.4614 36.8231 33.4984 36.4159 33.7755 36.4069C34.0527 36.3978 34.3576 36.7778 34.4962 37.1307Z" fill="#04C0FF"/>
<path d="M36.843 21.9768C36.8976 22.1988 36.9225 22.4269 36.917 22.6553C36.8858 22.8798 36.8332 23.1009 36.7599 23.3157C35.9714 25.2156 35.1738 27.1125 34.3668 29.0064C34.2929 29.1873 34.2559 29.4678 33.9972 29.4949C33.7385 29.5221 33.6369 29.2145 33.5353 28.9973C32.7499 27.1336 31.9553 25.279 31.1699 23.4153C31.0405 23.1305 30.9736 22.8223 30.9736 22.5105C30.9736 22.1988 31.0405 21.8906 31.1699 21.6058C31.9368 19.7964 32.7222 17.987 33.4983 16.1233C33.5907 15.8971 33.6276 15.6076 33.9326 15.5804C34.2375 15.5533 34.2282 15.7704 34.2929 15.9333C35.1614 17.9659 36.0115 19.9804 36.843 21.9768Z" fill="#04C0FF"/>
<path d="M46.9143 11.9886C46.8219 11.5363 46.748 11.0839 46.6463 10.6225C46.064 7.8036 44.5744 5.24162 42.3961 3.31241C40.5254 1.70201 38.2354 0.630964 35.7805 0.218287C35.4109 -0.0893161 34.9767 0.0916268 34.5701 0.0644853C34.1232 0.145262 33.6642 0.136027 33.2211 0.0373439C32.8053 0.0373439 32.3618 -0.116457 31.9922 0.200192C29.8087 0.604715 27.7464 1.48604 25.9588 2.77863C21.6716 6.08988 20.1378 10.4235 20.7753 15.517C21.2275 18.4189 22.6859 21.08 24.9054 23.0533C27.4741 25.5503 30.015 28.0654 32.5836 30.5624C32.8053 30.7886 32.9901 31.0781 33.3597 31.1324C33.5133 31.2599 33.7081 31.3299 33.9095 31.3299C34.1108 31.3299 34.3057 31.2599 34.4592 31.1324C37.0648 28.5992 39.6334 26.0207 42.3037 23.5509C44.8356 21.2493 46.4692 18.1557 46.9235 14.8023C47.2113 13.8851 47.2081 12.904 46.9143 11.9886ZM45.3066 17.8512C45.0825 19.0668 44.5124 20.1958 43.6619 21.1081C42.4196 22.5883 41.0702 23.9791 39.6242 25.2698C38.0719 26.8169 36.455 28.3097 34.9397 29.8929C34.1913 30.671 33.6831 30.5986 32.9532 29.8929C30.4862 27.4049 28.0562 24.8717 25.4321 22.5376C20.7384 18.3849 21.8748 13.7076 24.9239 9.8173C25.8633 8.56889 27.0799 7.54564 28.4819 6.82473C29.884 6.10381 31.435 5.70406 33.0178 5.65562C40.6128 5.58324 45.9072 11.2377 45.3066 17.8512Z" fill="#04C0FF"/>
<path d="M51.4694 32.7701C51.4694 33.0053 51.1645 33.0505 50.9613 33.132L45.1495 35.4842C44.9112 35.5825 44.6551 35.6331 44.3965 35.6331C44.1379 35.6331 43.8818 35.5825 43.6435 35.4842L37.5176 33.0053C37.3975 33.0053 37.3051 32.8334 37.1572 32.7067C37.8552 32.2552 38.6226 31.9161 39.4302 31.7025C40.6498 31.1868 41.8972 30.7345 43.126 30.2007C43.5057 30.0185 43.9229 29.9238 44.3457 29.9238C44.7685 29.9238 45.1856 30.0185 45.5653 30.2007C47.3578 30.9697 49.1688 31.6754 50.9705 32.4082C51.1645 32.4172 51.4972 32.4444 51.4694 32.7701Z" fill="#04C0FF"/>
<path d="M66.6504 29.0965C64.7008 23.4873 60.543 20.5198 54.6388 19.7599C54.3661 19.6218 54.0635 19.5498 53.7564 19.5498C53.4494 19.5498 53.1468 19.6218 52.8741 19.7599C49.4402 19.9933 46.2214 21.482 43.8562 23.9306C41.5278 26.3462 39.0793 28.6532 36.6677 30.9964C34.8198 32.8059 35.1617 32.9687 36.7139 34.6153C38.8483 36.8228 41.0935 38.9217 43.2741 41.0749C45.6911 43.6692 49.0449 45.2398 52.6246 45.4538C52.973 45.6019 53.3488 45.6784 53.7287 45.6784C54.1086 45.6784 54.4844 45.6019 54.8329 45.4538C56.8779 45.241 58.8579 44.6255 60.6538 43.6443C63.2148 42.27 65.2113 40.0703 66.3043 37.4186C67.3973 34.7669 67.5196 31.8265 66.6504 29.0965ZM61.6148 33.8372C61.3056 36.6176 59.9528 39.1865 57.8187 41.0454C55.6846 42.9043 52.9214 43.9208 50.0652 43.8976C48.3374 44.0967 46.896 43.1377 45.6209 42.0882C42.4148 39.3741 39.5597 36.2528 36.5199 33.3487C36.0764 32.9235 36.178 32.5435 36.5846 32.1454L45.547 23.424C47.82 21.2074 50.4995 20.9631 53.4377 21.8136C58.732 23.3064 62.3724 28.6532 61.6148 33.8372Z" fill="#04C0FF"/>
<path d="M47.3948 18.8553C48.2264 17.1273 48.9101 15.345 49.6123 13.5717C49.9167 13.0264 50.1823 12.4611 50.4069 11.8799C50.523 11.3109 50.7886 10.7813 51.1775 10.3435C51.5664 9.90558 52.0651 9.57452 52.6244 9.3829C55.1284 8.41486 57.6231 7.40158 60.127 6.37021C60.3857 6.26164 60.6722 6.07165 60.9401 6.37021C61.2081 6.66876 60.9401 6.90399 60.8385 7.14826C59.8129 9.58194 58.778 12.0066 57.7617 14.4403C57.6375 14.8168 57.4368 15.1648 57.1716 15.4633C56.9064 15.7618 56.5823 16.0047 56.2187 16.1773L48.3927 19.5067C48.1747 19.5641 47.9522 19.6035 47.7274 19.6243C47.2932 19.6966 47.2377 19.1719 47.3948 18.8553Z" fill="#04C0FF"/>
<path d="M51.4694 32.7701C51.4694 33.0053 51.1645 33.0505 50.9613 33.132L45.1495 35.4842C44.9112 35.5825 44.6551 35.6331 44.3965 35.6331C44.1379 35.6331 43.8818 35.5825 43.6435 35.4842L37.5176 33.0053C37.3975 33.0053 37.3051 32.8334 37.1572 32.7067C37.8552 32.2552 38.6226 31.9161 39.4302 31.7025C40.6498 31.1868 41.8972 30.7345 43.126 30.2007C43.5057 30.0185 43.9229 29.9238 44.3457 29.9238C44.7685 29.9238 45.1856 30.0185 45.5653 30.2007C47.3578 30.9697 49.1688 31.6754 50.9705 32.4082C51.1645 32.4172 51.4972 32.4444 51.4694 32.7701Z" fill="#04C0FF"/>
<path d="M66.6504 29.0968C64.7008 23.4876 60.543 20.5201 54.6388 19.7602C54.055 19.6607 53.4579 19.6607 52.8741 19.7602C49.4402 19.9936 46.2214 21.4823 43.8562 23.9309C41.5278 26.3465 39.0793 28.6535 36.6677 30.9967C34.8198 32.8061 35.1617 32.969 36.7139 34.6156C38.8483 36.8231 41.0935 38.922 43.2741 41.0752C45.6911 43.6695 49.0449 45.2401 52.6246 45.454C53.3558 45.5717 54.1017 45.5717 54.8329 45.454C56.8779 45.2413 58.8579 44.6258 60.6538 43.6446C63.2148 42.2703 65.2113 40.0706 66.3043 37.4189C67.3973 34.7671 67.5196 31.8268 66.6504 29.0968ZM61.6148 33.8375C61.3056 36.6179 59.9528 39.1867 57.8187 41.0457C55.6846 42.9046 52.9214 43.9211 50.0652 43.8979C48.3374 44.097 46.896 43.138 45.6209 42.0885C42.4148 39.3744 39.5597 36.2531 36.5199 33.349C36.0764 32.9238 36.178 32.5438 36.5846 32.1457L45.547 23.4243C47.82 21.2077 50.4995 20.9634 53.4377 21.8139C58.732 23.3066 62.3724 28.6535 61.6148 33.8375Z" fill="#04C0FF"/>
<path d="M36.843 21.9768C36.8976 22.1988 36.9225 22.4269 36.917 22.6553C36.8858 22.8798 36.8332 23.1009 36.7599 23.3157C35.9714 25.2156 35.1738 27.1125 34.3668 29.0064C34.2929 29.1873 34.2559 29.4678 33.9972 29.4949C33.7385 29.5221 33.6369 29.2145 33.5353 28.9973C32.7499 27.1336 31.9553 25.279 31.1699 23.4153C31.0405 23.1305 30.9736 22.8223 30.9736 22.5105C30.9736 22.1988 31.0405 21.8906 31.1699 21.6058C31.9368 19.7964 32.7222 17.987 33.4983 16.1233C33.5907 15.8971 33.6276 15.6076 33.9326 15.5804C34.2375 15.5533 34.2282 15.7704 34.2929 15.9333C35.1614 17.9659 36.0115 19.9804 36.843 21.9768Z" fill="#04C0FF"/>
<path d="M46.9143 11.9884C46.8219 11.536 46.748 11.0837 46.6463 10.6223C46.064 7.80337 44.5744 5.24139 42.3961 3.31217C40.5254 1.70177 38.2354 0.63073 35.7805 0.218052C35.6253 0.169831 35.4627 0.148402 35.3 0.154722C35.0589 0.179041 34.8154 0.148066 34.5886 0.0642508C34.1357 0.147531 33.6702 0.138291 33.2211 0.0371094L33.0825 0.0823451C32.7222 0.181864 32.3434 0.0823451 31.9922 0.199958C29.8087 0.60448 27.7464 1.48581 25.9588 2.77839C21.6716 6.08965 20.1378 10.4232 20.7753 15.5168C21.2275 18.4187 22.6859 21.0798 24.9054 23.053C27.4741 25.55 30.015 28.0652 32.5836 30.5622C32.8053 30.7883 32.9901 31.0778 33.3597 31.1321C33.7192 31.2315 34.0998 31.2315 34.4592 31.1321C37.0648 28.5989 39.6334 26.0205 42.3037 23.5506C44.8356 21.2491 46.4692 18.1555 46.9235 14.802C47.0267 13.8667 47.0236 12.923 46.9143 11.9884ZM45.3066 17.8509C45.0825 19.0666 44.5124 20.1955 43.6619 21.1079C42.4196 22.5881 41.0702 23.9789 39.6242 25.2696C38.0719 26.8166 36.455 28.3094 34.9397 29.8927C34.1913 30.6707 33.6831 30.5984 32.9532 29.8927C30.4862 27.4047 28.0562 24.8715 25.4321 22.5373C20.7384 18.3847 21.8748 13.7073 24.9239 9.81707C25.8633 8.56866 27.0799 7.54541 28.4819 6.82449C29.884 6.10358 31.435 5.70382 33.0178 5.65538C40.6128 5.58301 45.9072 11.2375 45.3066 17.8509Z" fill="#04C0FF"/>
<path d="M30.2921 32.426C30.4393 32.5267 30.5755 32.6419 30.6986 32.7698C29.7747 33.3669 28.7398 33.5297 27.8713 34.0454C26.5617 34.9167 25.0149 35.3825 23.4316 35.3825C21.8484 35.3825 20.3016 34.9167 18.992 34.0454C18.2401 33.6696 17.462 33.3461 16.6636 33.0774C16.2109 32.8874 16.1739 32.625 16.6636 32.435C18.7702 31.5755 20.8769 30.7251 22.9928 29.9018C23.3843 29.7714 23.8126 29.7974 24.1847 29.9742L30.2921 32.426Z" fill="#04C0FF"/>
<path d="M31.5953 31.4673C29.119 29.0427 26.5966 26.6542 24.2035 24.1753C21.8457 21.6906 18.6489 20.1255 15.2041 19.7693C14.5435 19.6609 13.869 19.6609 13.2084 19.7693C10.1104 19.9539 7.17319 21.183 4.89593 23.2479C2.61867 25.3128 1.14183 28.086 0.716362 31.0964C0.654783 31.3234 0.629842 31.5584 0.642445 31.793C0.678341 32.0976 0.646828 32.4061 0.550049 32.6977C0.650175 33.0104 0.681661 33.3403 0.642445 33.6658C0.631338 33.8818 0.653137 34.0983 0.707123 34.3081C0.970961 36.9401 2.14061 39.4061 4.02415 41.3015C6.40625 43.7985 9.69428 45.2799 13.1806 45.427C13.8389 45.5272 14.5089 45.5272 15.1672 45.427C18.6099 45.1303 21.8264 43.623 24.222 41.1839C26.652 38.7593 29.1283 36.3709 31.6137 33.9462C32.5654 33.0325 32.5747 32.4353 31.5953 31.4673ZM31.0132 33.72C28.5185 36.0813 26.1069 38.5331 23.6214 40.9578C21.7181 42.7672 19.6576 44.3052 16.7102 43.9343C15.0933 43.7826 13.5267 43.3019 12.1106 42.523C10.6945 41.744 9.46023 40.6839 8.4869 39.4107C6.97351 37.4675 6.18158 35.0774 6.24167 32.6344C6.23653 31.0937 6.55347 29.5683 7.17299 28.152C7.79251 26.7357 8.7015 25.4586 9.84401 24.3992C10.9865 23.3399 12.3384 22.5206 13.8163 21.992C15.2943 21.4634 16.8671 21.2366 18.438 21.3255C19.1364 21.4033 19.8069 21.6386 20.3968 22.013C21.4143 22.5891 22.3468 23.2983 23.1687 24.121C25.7835 26.6723 28.3706 29.2598 31.0224 31.7749C31.7893 32.5077 31.78 32.9872 31.0132 33.72Z" fill="#04C0FF"/>
<path d="M37.8872 45.6078C37.8361 46.3732 37.6287 47.1208 37.2774 47.8063C36.3534 49.9776 35.4294 52.1308 34.5055 54.2931C34.3669 54.6188 34.2837 55.0259 33.8033 54.9988C33.3228 54.9716 33.3875 54.5645 33.2951 54.3383C32.2325 51.6242 30.939 49.0277 29.9688 46.2864C29.8076 45.7973 29.8439 45.2663 30.0705 44.8026C31.1053 42.1971 32.2418 39.6458 33.3598 37.0764C33.4614 36.8231 33.4984 36.4159 33.7755 36.4069C34.0527 36.3978 34.3392 36.7778 34.4778 37.1307C35.4017 39.4105 36.3257 41.6542 37.3328 43.9341C37.5886 44.467 37.7749 45.0293 37.8872 45.6078Z" fill="#04C0FF"/>
<path d="M60.8385 7.13921C59.8129 9.5729 58.778 11.9975 57.7617 14.4312C57.6375 14.8077 57.4368 15.1557 57.1716 15.4543C56.9064 15.7528 56.5823 15.9957 56.2187 16.1683L48.3927 19.4976C48.1747 19.5551 47.9522 19.5944 47.7274 19.6152C47.2932 19.6966 47.2377 19.1719 47.3948 18.8553C48.2264 17.1273 48.9101 15.345 49.6123 13.5717C49.9167 13.0264 50.1823 12.4611 50.4069 11.8799C50.523 11.3109 50.7886 10.7813 51.1775 10.3435C51.5664 9.90558 52.0651 9.57452 52.6244 9.38291C55.1284 8.41486 57.6231 7.40158 60.127 6.37021C60.3857 6.26164 60.6722 6.07165 60.9401 6.37021C61.2081 6.66876 60.9401 6.89494 60.8385 7.13921Z" fill="#04C0FF"/>
<path d="M20.3873 19.4797C20.2324 19.5706 20.0551 19.6186 19.8745 19.6186C19.6939 19.6186 19.5166 19.5706 19.3617 19.4797C16.904 18.4846 14.437 17.5346 11.97 16.5304C11.0203 16.0894 10.2865 15.2994 9.92803 14.3319C8.86547 11.9163 7.91378 9.45551 6.9159 7.02183C6.75883 6.4971 6.9159 6.25282 7.29473 6.27997C7.39916 6.26931 7.50444 6.26931 7.60887 6.27997C10.0666 7.31134 12.5151 8.36986 15.0006 9.34695C15.5144 9.5232 15.982 9.80841 16.3702 10.1822C16.7583 10.556 17.0573 11.0091 17.2458 11.5092C18.1698 13.8886 19.2416 16.2318 20.2579 18.5841C20.3965 18.9007 20.6737 19.2445 20.3873 19.4797Z" fill="#04C0FF"/>
<path d="M46.9143 14.8019V11.9883C47.206 12.9046 47.206 13.8857 46.9143 14.8019Z" fill="#04C0FF"/>
<path d="M15.1669 19.7694H13.1711C13.4835 19.6264 13.8242 19.5522 14.169 19.5522C14.5139 19.5522 14.8545 19.6264 15.1669 19.7694Z" fill="#04C0FF"/>
<path d="M54.6295 19.7599H52.8647C53.1375 19.6218 53.4401 19.5498 53.7471 19.5498C54.0542 19.5498 54.3567 19.6218 54.6295 19.7599Z" fill="#04C0FF"/>
<path d="M0.550042 32.7339C0.550042 33.0596 0.61492 33.3762 0.642725 33.7019C0.67053 34.0276 0.642725 34.1271 0.707604 34.3443C0.364676 33.8376 0.587115 33.2677 0.550042 32.7339Z" fill="#04C0FF"/>
<path d="M0.716872 31.0962C0.716872 31.3314 0.670531 31.5576 0.642726 31.7928C0.614921 32.028 0.587116 32.408 0.550043 32.6975C0.596385 32.1728 0.364676 31.6028 0.716872 31.0962Z" fill="#04C0FF"/>
<path d="M7.62751 6.29819C7.52308 6.28753 7.4178 6.28753 7.31336 6.29819C6.9253 6.29819 6.8329 6.5696 6.93454 7.04005C6.87715 6.99888 6.82941 6.94617 6.79454 6.88545C6.75966 6.82474 6.73845 6.75742 6.73232 6.68802C6.7262 6.61861 6.7353 6.54873 6.75902 6.48306C6.78274 6.41738 6.82053 6.35743 6.86986 6.30723C6.91765 6.25569 6.97577 6.21434 7.0406 6.18576C7.10543 6.15719 7.17558 6.142 7.24667 6.14115C7.31777 6.1403 7.38827 6.15381 7.4538 6.18083C7.51932 6.20784 7.57846 6.2478 7.62751 6.29819Z" fill="#04C0FF"/>
<path d="M34.4501 31.1323C34.2965 31.2598 34.1017 31.3298 33.9003 31.3298C33.699 31.3298 33.5042 31.2598 33.3506 31.1323H34.4501Z" fill="#04C0FF"/>
<path d="M35.7807 0.218181L35.3002 0.154851L34.5703 0.0372384C34.9769 0.0915213 35.4111 -0.0894216 35.7807 0.218181Z" fill="#04C0FF"/>
<path d="M33.2212 0.0371094L33.0826 0.0823451C32.7407 0.195061 32.3803 0.244157 32.02 0.227099C32.3896 -0.0895506 32.8331 0.100439 33.2212 0.0371094Z" fill="#04C0FF"/>
<path d="M51.4694 32.7701C51.4694 33.0053 51.1645 33.0505 50.9613 33.132L45.1495 35.4842C44.9112 35.5825 44.6551 35.6331 44.3965 35.6331C44.1379 35.6331 43.8818 35.5825 43.6435 35.4842L37.5176 33.0053C37.3975 33.0053 37.3051 32.8334 37.1572 32.7067C37.8552 32.2552 38.6226 31.9161 39.4302 31.7025C40.6498 31.1868 41.8972 30.7345 43.126 30.2007C43.5057 30.0185 43.9229 29.9238 44.3457 29.9238C44.7685 29.9238 45.1856 30.0185 45.5653 30.2007C47.3578 30.9697 49.1688 31.6754 50.9705 32.4082C51.1645 32.4172 51.4972 32.4444 51.4694 32.7701Z" fill="#04C0FF"/>
<path d="M36.917 22.6553C36.8858 22.8798 36.8332 23.1009 36.7599 23.3157C35.9714 25.2156 35.1738 27.1125 34.3668 29.0064C34.2929 29.1873 34.2559 29.4678 33.9972 29.4949C33.7385 29.5221 33.6369 29.2145 33.5353 28.9973C32.7499 27.1336 31.9553 25.279 31.1699 23.4153C31.0405 23.1305 30.9736 22.8223 30.9736 22.5105C30.9736 22.1988 31.0405 21.8906 31.1699 21.6058C31.9368 19.7964 32.7222 17.987 33.4983 16.1233C33.5907 15.8971 33.6276 15.6076 33.9326 15.5804C34.2375 15.5533 34.2282 15.7704 34.2929 15.9333C35.143 17.9236 35.9838 19.917 36.8153 21.9134C36.8851 22.1547 36.9193 22.4045 36.917 22.6553Z" fill="#04C0FF"/>
<path d="M30.6986 32.7698C29.7747 33.3669 28.7398 33.5297 27.8713 34.0454C26.5617 34.9167 25.0149 35.3825 23.4316 35.3825C21.8484 35.3825 20.3016 34.9167 18.992 34.0454C18.2401 33.6696 17.462 33.3461 16.6636 33.0774C16.2109 32.8874 16.1739 32.625 16.6636 32.435C18.7702 31.5755 20.8769 30.7251 22.9928 29.9018C23.3843 29.7714 23.8126 29.7974 24.1847 29.9742L30.3106 32.4441C30.4504 32.54 30.5804 32.6491 30.6986 32.7698Z" fill="#04C0FF"/>
<path d="M51.4694 32.7701C51.4694 33.0053 51.1645 33.0505 50.9613 33.132L45.1495 35.4842C44.9112 35.5825 44.6551 35.6331 44.3965 35.6331C44.1379 35.6331 43.8818 35.5825 43.6435 35.4842L37.5176 33.0053C37.3975 33.0053 37.3051 32.8334 37.1572 32.7067C37.8552 32.2552 38.6226 31.9161 39.4302 31.7025C40.6498 31.1868 41.8972 30.7345 43.126 30.2007C43.5057 30.0185 43.9229 29.9238 44.3457 29.9238C44.7685 29.9238 45.1856 30.0185 45.5653 30.2007C47.3578 30.9697 49.1688 31.6754 50.9705 32.4082C51.1645 32.4172 51.4972 32.4444 51.4694 32.7701Z" fill="#04C0FF"/>
<path d="M36.917 22.6553C36.8858 22.8798 36.8332 23.1009 36.7599 23.3157C35.9714 25.2156 35.1738 27.1125 34.3668 29.0064C34.2929 29.1873 34.2559 29.4678 33.9972 29.4949C33.7385 29.5221 33.6369 29.2145 33.5353 28.9973C32.7499 27.1336 31.9553 25.279 31.1699 23.4153C31.0405 23.1305 30.9736 22.8223 30.9736 22.5105C30.9736 22.1988 31.0405 21.8906 31.1699 21.6058C31.9368 19.7964 32.7222 17.987 33.4983 16.1233C33.5907 15.8971 33.6276 15.6076 33.9326 15.5804C34.2375 15.5533 34.2282 15.7704 34.2929 15.9333C35.143 17.9236 35.9838 19.917 36.8153 21.9134C36.8851 22.1547 36.9193 22.4045 36.917 22.6553Z" fill="#04C0FF"/>
<path d="M30.6986 32.7698C29.7747 33.3669 28.7398 33.5297 27.8713 34.0454C26.5617 34.9167 25.0149 35.3825 23.4316 35.3825C21.8484 35.3825 20.3016 34.9167 18.992 34.0454C18.2401 33.6696 17.462 33.3461 16.6636 33.0774C16.2109 32.8874 16.1739 32.625 16.6636 32.435C18.7702 31.5755 20.8769 30.7251 22.9928 29.9018C23.3843 29.7714 23.8126 29.7974 24.1847 29.9742L30.3106 32.4441C30.4504 32.54 30.5804 32.6491 30.6986 32.7698Z" fill="#04C0FF"/>
</svg>
